<?xml version="1.0"?>
<!-- Generated by SVGo and Plotinum VG -->
<svg width="380pt" height="190pt" viewBox="0 0 380 190"
	xmlns="http://www.w3.org/2000/svg"
	xmlns:xlink="http://www.w3.org/1999/xlink">
<g transform="scale(1, -1) translate(0, -190)">
<path d="M0,0L380,0L380,190L0,190Z" style="fill:#FFFFFF" />
<text x="203.49" y="-3.8613" transform="scale(1, -1)"
	style="font-family:Times;font-weight:normal;font-style:normal;font-size:12px">Method</text>
<text x="69.166" y="-15.602" transform="scale(1, -1)"
	style="font-family:Times;font-weight:normal;font-style:normal;font-size:10px">Regex</text>
<text x="209.38" y="-15.602" transform="scale(1, -1)"
	style="font-family:Times;font-weight:normal;font-style:normal;font-size:10px">fasturl</text>
<text x="344.73" y="-15.602" transform="scale(1, -1)"
	style="font-family:Times;font-weight:normal;font-style:normal;font-size:10px">url.Parse</text>
<g transform="rotate(90)">
<text x="98.446" y="11.555" transform="scale(1, -1)"
	style="font-family:Times;font-weight:normal;font-style:normal;font-size:12px">B/op</text>
</g>
<text x="25.416" y="-25.509" transform="scale(1, -1)"
	style="font-family:Times;font-weight:normal;font-style:normal;font-size:10px">0.00</text>
<text x="15.416" y="-100.87" transform="scale(1, -1)"
	style="font-family:Times;font-weight:normal;font-style:normal;font-size:10px">250.00</text>
<text x="15.416" y="-176.23" transform="scale(1, -1)"
	style="font-family:Times;font-weight:normal;font-style:normal;font-size:10px">500.00</text>
<path d="M45.416,30.23L53.416,30.23" style="fill:none;stroke:#000000;stroke-width:0.5" />
<path d="M45.416,105.59L53.416,105.59" style="fill:none;stroke:#000000;stroke-width:0.5" />
<path d="M45.416,180.96L53.416,180.96" style="fill:none;stroke:#000000;stroke-width:0.5" />
<path d="M49.416,45.303L53.416,45.303" style="fill:none;stroke:#000000;stroke-width:0.5" />
<path d="M49.416,60.376L53.416,60.376" style="fill:none;stroke:#000000;stroke-width:0.5" />
<path d="M49.416,75.448L53.416,75.448" style="fill:none;stroke:#000000;stroke-width:0.5" />
<path d="M49.416,90.521L53.416,90.521" style="fill:none;stroke:#000000;stroke-width:0.5" />
<path d="M49.416,120.67L53.416,120.67" style="fill:none;stroke:#000000;stroke-width:0.5" />
<path d="M49.416,135.74L53.416,135.74" style="fill:none;stroke:#000000;stroke-width:0.5" />
<path d="M49.416,150.81L53.416,150.81" style="fill:none;stroke:#000000;stroke-width:0.5" />
<path d="M49.416,165.88L53.416,165.88" style="fill:none;stroke:#000000;stroke-width:0.5" />
<path d="M53.416,30.23L53.416,190" style="fill:none;stroke:#000000;stroke-width:0.5" />
<path d="M66.939,30.23L66.939,190L96.939,190L96.939,30.23Z" style="fill:#F15A60" />
<path d="M207.15,30.23L207.15,59.17L237.15,59.17L237.15,30.23Z" style="fill:#F15A60" />
<path d="M347.37,30.23L347.37,68.816L377.37,68.816L377.37,30.23Z" style="fill:#F15A60" />
<path d="M360,190L360,190L380,190L380,190Z" style="fill:#F15A60" />
</g>
</svg>
