<?xml version="1.0"?>
<!-- Generated by SVGo and Plotinum VG -->
<svg width="380pt" height="190pt" viewBox="0 0 380 190"
	xmlns="http://www.w3.org/2000/svg"
	xmlns:xlink="http://www.w3.org/1999/xlink">
<g transform="scale(1, -1) translate(0, -190)">
<path d="M0,0L380,0L380,190L0,190Z" style="fill:#FFFFFF" />
<text x="199.74" y="-3.8613" transform="scale(1, -1)"
	style="font-family:Times;font-weight:normal;font-style:normal;font-size:12px">Method</text>
<text x="61.666" y="-15.602" transform="scale(1, -1)"
	style="font-family:Times;font-weight:normal;font-style:normal;font-size:10px">Regex</text>
<text x="205.63" y="-15.602" transform="scale(1, -1)"
	style="font-family:Times;font-weight:normal;font-style:normal;font-size:10px">fasturl</text>
<text x="344.73" y="-15.602" transform="scale(1, -1)"
	style="font-family:Times;font-weight:normal;font-style:normal;font-size:10px">url.Parse</text>
<g transform="rotate(90)">
<text x="97.113" y="11.555" transform="scale(1, -1)"
	style="font-family:Times;font-weight:normal;font-style:normal;font-size:12px">ns/op</text>
</g>
<text x="30.416" y="-25.509" transform="scale(1, -1)"
	style="font-family:Times;font-weight:normal;font-style:normal;font-size:10px">0</text>
<text x="15.416" y="-89.545" transform="scale(1, -1)"
	style="font-family:Times;font-weight:normal;font-style:normal;font-size:10px">1000</text>
<text x="15.416" y="-153.58" transform="scale(1, -1)"
	style="font-family:Times;font-weight:normal;font-style:normal;font-size:10px">2000</text>
<path d="M37.916,30.23L45.916,30.23" style="fill:none;stroke:#000000;stroke-width:0.5" />
<path d="M37.916,94.266L45.916,94.266" style="fill:none;stroke:#000000;stroke-width:0.5" />
<path d="M37.916,158.3L45.916,158.3" style="fill:none;stroke:#000000;stroke-width:0.5" />
<path d="M41.916,43.038L45.916,43.038" style="fill:none;stroke:#000000;stroke-width:0.5" />
<path d="M41.916,55.845L45.916,55.845" style="fill:none;stroke:#000000;stroke-width:0.5" />
<path d="M41.916,68.652L45.916,68.652" style="fill:none;stroke:#000000;stroke-width:0.5" />
<path d="M41.916,81.459L45.916,81.459" style="fill:none;stroke:#000000;stroke-width:0.5" />
<path d="M41.916,107.07L45.916,107.07" style="fill:none;stroke:#000000;stroke-width:0.5" />
<path d="M41.916,119.88L45.916,119.88" style="fill:none;stroke:#000000;stroke-width:0.5" />
<path d="M41.916,132.69L45.916,132.69" style="fill:none;stroke:#000000;stroke-width:0.5" />
<path d="M41.916,145.5L45.916,145.5" style="fill:none;stroke:#000000;stroke-width:0.5" />
<path d="M41.916,171.11L45.916,171.11" style="fill:none;stroke:#000000;stroke-width:0.5" />
<path d="M41.916,183.92L45.916,183.92" style="fill:none;stroke:#000000;stroke-width:0.5" />
<path d="M45.916,30.23L45.916,190" style="fill:none;stroke:#000000;stroke-width:0.5" />
<path d="M59.439,30.23L59.439,190L89.439,190L89.439,30.23Z" style="fill:#F15A60" />
<path d="M203.4,30.23L203.4,44.19L233.4,44.19L233.4,30.23Z" style="fill:#F15A60" />
<path d="M347.37,30.23L347.37,65.258L377.37,65.258L377.37,30.23Z" style="fill:#F15A60" />
<path d="M360,190L360,190L380,190L380,190Z" style="fill:#F15A60" />
</g>
</svg>
